<?xml version="1.0" encoding="UTF-8"?>
<svg xmlns="http://www.w3.org/2000/svg" viewBox="0 0 800 300">
  <defs>
    <linearGradient id="orangeGradient" x1="0%" y1="0%" x2="100%" y2="100%">
      <stop offset="0%" style="stop-color:#FF9500;stop-opacity:1" />
      <stop offset="100%" style="stop-color:#FF5E00;stop-opacity:1" />
    </linearGradient>
  </defs>
  <g>
    <!-- 本のアイコン（開いた本） -->
    <path d="M160,140 L160,220 L270,220 L270,140 C270,140 215,160 160,140 Z" fill="none" stroke="url(#orangeGradient)" stroke-width="8"/>
    <path d="M160,140 C160,140 215,120 270,140" stroke="url(#orangeGradient)" stroke-width="8" fill="none"/>
    <path d="M160,140 L160,220 L110,200 L110,120 Z" fill="none" stroke="url(#orangeGradient)" stroke-width="8"/>
    <path d="M270,140 L270,220 L320,200 L320,120 Z" fill="none" stroke="url(#orangeGradient)" stroke-width="8"/>

    <!-- 電球アイコン -->
    <path d="M215,100 C175,100 175,150 215,170 C255,150 255,100 215,100 Z" fill="none" stroke="url(#orangeGradient)" stroke-width="8"/>
    <path d="M215,170 L215,190" stroke="url(#orangeGradient)" stroke-width="8" stroke-linecap="round"/>
    <path d="M200,190 L230,190" stroke="url(#orangeGradient)" stroke-width="8" stroke-linecap="round"/>
    <path d="M215,80 L215,60" stroke="url(#orangeGradient)" stroke-width="8" stroke-linecap="round"/>
    <path d="M250,90 L265,75" stroke="url(#orangeGradient)" stroke-width="8" stroke-linecap="round"/>
    <path d="M180,90 L165,75" stroke="url(#orangeGradient)" stroke-width="8" stroke-linecap="round"/>
    <path d="M250,130 L265,145" stroke="url(#orangeGradient)" stroke-width="8" stroke-linecap="round"/>

    <!-- Skillpedia テキスト -->
    <text x="400" y="150" font-family="Arial, sans-serif" font-size="80" font-weight="bold" fill="url(#orangeGradient)">Skillpedia</text>

    <!-- 20代のビジネススキル百科 テキスト -->
    <text x="400" y="220" font-family="Arial, sans-serif" font-size="30" font-weight="bold" fill="url(#orangeGradient)" text-anchor="middle">２０代のビジネススキル百科</text>
  </g>
</svg>
